# xmcd
#
# Track frame offsets: 
#        150
#        12473
#        27323
#        44481
#        58670
#        70991
#        83185
#        92536
#        108664
#        124669
#        133769
#        145871
#        162043
#        168141
#        179959
#
# Disc length: 2573 seconds
#
# Revision: 0
# Processed by: cddbd v1.5.2PL0 Copyright (c) Steve Scherf et al.
# Submitted via: ExactAudioCopy v0.99pb5
#
DISCID=d30a0b0f
DTITLE=Nrbq  - Bushnell Park - Hartford, CT - - FM_ 1974-08-01  FLAC
DYEAR=1900
DGENRE=
TTITLE0=C'mon everybody
TTITLE1=Hey Baby
TTITLE2=R.C. Cola and a Moonpie
TTITLE3=Call Him Off Rogers
TTITLE4=No Good To Cry
TTITLE5=Hey Doll Baby
TTITLE6=Queen talk
TTITLE7=We'll Make Love
TTITLE8=Howard Johnson's Got His HoJo Workin
TTITLE9=All Mama's Children
TTITLE10=Time and Place
TTITLE11=Time and Place - cont.
TTITLE12=Announcements
TTITLE13=Get Rhythm
TTITLE14=Get That Gasoline
EXTD=
EXTT0=
EXTT1=
EXTT2=
EXTT3=
EXTT4=
EXTT5=
EXTT6=
EXTT7=
EXTT8=
EXTT9=
EXTT10=
EXTT11=
EXTT12=
EXTT13=
EXTT14=
PLAYORDER=
